<mxfile host="65bd71144e">
    <diagram id="araIAavNtnU19a6DUUGs" name="Page-1">
        <mxGraphModel dx="-903" dy="831" grid="1" gridSize="10" guides="1" tooltips="1" connect="1" arrows="1" fold="1" page="1" pageScale="1" pageWidth="850" pageHeight="1100" math="0" shadow="0">
            <root>
                <mxCell id="0"/>
                <mxCell id="1" parent="0"/>
                <mxCell id="2" value="&lt;b&gt;BRANCH UNIT&lt;br&gt;&lt;/b&gt;" style="rounded=1;whiteSpace=wrap;html=1;" vertex="1" parent="1">
                    <mxGeometry x="2840" y="465" width="270" height="180" as="geometry"/>
                </mxCell>
                <mxCell id="3" value="pc" style="html=1;shadow=0;dashed=0;align=left;verticalAlign=middle;shape=mxgraph.arrows2.arrow;dy=0;dx=10;notch=0;labelPosition=right;verticalLabelPosition=middle;spacing=5;movable=1;resizable=1;rotatable=1;deletable=1;editable=1;locked=0;connectable=1;" vertex="1" parent="1">
                    <mxGeometry x="2830" y="495" width="20" height="10" as="geometry"/>
                </mxCell>
                <mxCell id="4" value="&lt;div&gt;imm&lt;/div&gt;" style="html=1;shadow=0;dashed=0;align=left;verticalAlign=middle;shape=mxgraph.arrows2.arrow;dy=0;dx=10;notch=0;labelPosition=right;verticalLabelPosition=middle;spacing=5;movable=1;resizable=1;rotatable=1;deletable=1;editable=1;locked=0;connectable=1;" vertex="1" parent="1">
                    <mxGeometry x="2830" y="515" width="20" height="10" as="geometry"/>
                </mxCell>
                <mxCell id="5" value="&lt;div&gt;br_sig&lt;/div&gt;" style="html=1;shadow=0;dashed=0;align=left;verticalAlign=middle;shape=mxgraph.arrows2.arrow;dy=0;dx=10;notch=0;labelPosition=right;verticalLabelPosition=middle;spacing=5;movable=1;resizable=1;rotatable=1;deletable=1;editable=1;locked=0;connectable=1;" vertex="1" parent="1">
                    <mxGeometry x="2830" y="535" width="20" height="10" as="geometry"/>
                </mxCell>
                <mxCell id="6" value="&lt;div&gt;br_op&lt;/div&gt;" style="html=1;shadow=0;dashed=0;align=left;verticalAlign=middle;shape=mxgraph.arrows2.arrow;dy=0;dx=10;notch=0;labelPosition=right;verticalLabelPosition=middle;spacing=5;movable=1;resizable=1;rotatable=1;deletable=1;editable=1;locked=0;connectable=1;" vertex="1" parent="1">
                    <mxGeometry x="2830" y="555" width="20" height="10" as="geometry"/>
                </mxCell>
                <mxCell id="7" value="alu_result" style="html=1;shadow=0;dashed=0;align=center;verticalAlign=top;shape=mxgraph.arrows2.arrow;dy=0;dx=10;notch=0;labelPosition=center;verticalLabelPosition=bottom;spacing=5;movable=1;resizable=1;rotatable=1;deletable=1;editable=1;locked=0;connectable=1;direction=south;" vertex="1" parent="1">
                    <mxGeometry x="2970" y="455" width="10" height="20" as="geometry"/>
                </mxCell>
                <mxCell id="8" value="new_pc" style="html=1;shadow=0;dashed=0;align=right;verticalAlign=middle;shape=mxgraph.arrows2.arrow;dy=0;dx=10;notch=0;labelPosition=left;verticalLabelPosition=middle;spacing=5;movable=1;resizable=1;rotatable=1;deletable=1;editable=1;locked=0;connectable=1;" vertex="1" parent="1">
                    <mxGeometry x="3100" y="495" width="20" height="10" as="geometry"/>
                </mxCell>
                <mxCell id="9" value="br_taken" style="html=1;shadow=0;dashed=0;align=right;verticalAlign=middle;shape=mxgraph.arrows2.arrow;dy=0;dx=10;notch=0;labelPosition=left;verticalLabelPosition=middle;spacing=5;movable=1;resizable=1;rotatable=1;deletable=1;editable=1;locked=0;connectable=1;" vertex="1" parent="1">
                    <mxGeometry x="3100" y="515" width="20" height="10" as="geometry"/>
                </mxCell>
                <mxCell id="10" value="pc_plus4" style="html=1;shadow=0;dashed=0;align=right;verticalAlign=middle;shape=mxgraph.arrows2.arrow;dy=0;dx=10;notch=0;labelPosition=left;verticalLabelPosition=middle;spacing=5;movable=1;resizable=1;rotatable=1;deletable=1;editable=1;locked=0;connectable=1;" vertex="1" parent="1">
                    <mxGeometry x="3100" y="535" width="20" height="10" as="geometry"/>
                </mxCell>
            </root>
        </mxGraphModel>
    </diagram>
</mxfile>